<mxfile host="app.diagrams.net" modified="2021-03-25T01:37:14.876Z" agent="5.0 (Windows NT 10.0; Win64; x64) AppleWebKit/537.36 (KHTML, like Gecko) Chrome/89.0.4389.90 Safari/537.36" etag="fs3T7wVpY831T0EevFum" version="14.5.1" type="github">
  <diagram id="jZFMj2K4_JGq3fAnLhk-" name="第 1 页">
    <mxGraphModel dx="1038" dy="580" grid="1" gridSize="10" guides="1" tooltips="1" connect="1" arrows="1" fold="1" page="1" pageScale="1" pageWidth="1169" pageHeight="827" math="0" shadow="0">
      <root>
        <mxCell id="0" />
        <mxCell id="1" parent="0" />
        <mxCell id="Ug8McBro-mjewhibWhuq-91" value="" style="rounded=1;whiteSpace=wrap;html=1;labelBackgroundColor=#ffffff;fontSize=12;dashed=1;fillColor=#CCFFE6;" parent="1" vertex="1">
          <mxGeometry x="1680" y="560" width="250" height="130" as="geometry" />
        </mxCell>
        <mxCell id="Ug8McBro-mjewhibWhuq-79" value="" style="rounded=1;whiteSpace=wrap;html=1;labelBackgroundColor=#ffffff;fontSize=12;dashed=1;fillColor=#CCFFE6;" parent="1" vertex="1">
          <mxGeometry x="1330" y="560" width="250" height="130" as="geometry" />
        </mxCell>
        <mxCell id="Ug8McBro-mjewhibWhuq-72" value="" style="rounded=1;whiteSpace=wrap;html=1;labelBackgroundColor=none;fontSize=12;dashed=1;fillColor=#CCFFE6;" parent="1" vertex="1">
          <mxGeometry x="70" y="575" width="250" height="155" as="geometry" />
        </mxCell>
        <mxCell id="Ug8McBro-mjewhibWhuq-52" value="" style="rounded=1;whiteSpace=wrap;html=1;labelBackgroundColor=#CCFFE6;fontSize=12;dashed=1;fillColor=#CCFFE6;" parent="1" vertex="1">
          <mxGeometry x="280" y="807" width="250" height="130" as="geometry" />
        </mxCell>
        <mxCell id="Ug8McBro-mjewhibWhuq-53" value="" style="rounded=1;whiteSpace=wrap;html=1;labelBackgroundColor=#ffffff;fontSize=12;dashed=1;fillColor=#CCFFE6;" parent="1" vertex="1">
          <mxGeometry x="597" y="807" width="250" height="130" as="geometry" />
        </mxCell>
        <mxCell id="Ug8McBro-mjewhibWhuq-54" value="" style="rounded=1;whiteSpace=wrap;html=1;labelBackgroundColor=#ffffff;fontSize=12;dashed=1;fillColor=#CCFFE6;" parent="1" vertex="1">
          <mxGeometry x="910" y="803.5" width="250" height="130" as="geometry" />
        </mxCell>
        <mxCell id="Ug8McBro-mjewhibWhuq-55" value="" style="rounded=1;whiteSpace=wrap;html=1;labelBackgroundColor=#ffffff;fontSize=12;dashed=1;fillColor=#CCFFE6;" parent="1" vertex="1">
          <mxGeometry x="1220" y="802" width="250" height="130" as="geometry" />
        </mxCell>
        <mxCell id="Ug8McBro-mjewhibWhuq-3" style="edgeStyle=orthogonalEdgeStyle;rounded=1;orthogonalLoop=1;jettySize=auto;html=1;entryX=0;entryY=0.5;entryDx=0;entryDy=0;entryPerimeter=0;strokeWidth=3;" parent="1" source="Ug8McBro-mjewhibWhuq-1" target="Ug8McBro-mjewhibWhuq-11" edge="1">
          <mxGeometry relative="1" as="geometry">
            <mxPoint x="760" y="120.3" as="targetPoint" />
          </mxGeometry>
        </mxCell>
        <mxCell id="Ug8McBro-mjewhibWhuq-1" value="&lt;b&gt;客户端浏览器&lt;/b&gt;" style="dashed=0;outlineConnect=0;html=1;align=center;labelPosition=center;verticalLabelPosition=bottom;verticalAlign=top;shape=mxgraph.weblogos.chrome" parent="1" vertex="1">
          <mxGeometry x="470" y="90" width="80" height="80" as="geometry" />
        </mxCell>
        <mxCell id="Ug8McBro-mjewhibWhuq-7" style="edgeStyle=orthogonalEdgeStyle;rounded=1;orthogonalLoop=1;jettySize=auto;html=1;strokeWidth=3;" parent="1" target="Ug8McBro-mjewhibWhuq-6" edge="1">
          <mxGeometry relative="1" as="geometry">
            <mxPoint x="790" y="160.3" as="sourcePoint" />
          </mxGeometry>
        </mxCell>
        <mxCell id="Ug8McBro-mjewhibWhuq-9" style="edgeStyle=orthogonalEdgeStyle;rounded=0;orthogonalLoop=1;jettySize=auto;html=1;strokeWidth=3;entryX=0.5;entryY=0;entryDx=0;entryDy=0;entryPerimeter=0;" parent="1" source="Ug8McBro-mjewhibWhuq-6" target="Ug8McBro-mjewhibWhuq-31" edge="1">
          <mxGeometry relative="1" as="geometry">
            <mxPoint x="790" y="362.29999999999995" as="targetPoint" />
          </mxGeometry>
        </mxCell>
        <mxCell id="Ug8McBro-mjewhibWhuq-6" value="&lt;b&gt;labeltask-front&lt;/b&gt;" style="aspect=fixed;perimeter=ellipsePerimeter;html=1;align=center;shadow=0;dashed=0;fontColor=#4277BB;labelBackgroundColor=#ffffff;fontSize=12;spacingTop=3;image;image=img/lib/ibm/infrastructure/channels.svg;" parent="1" vertex="1">
          <mxGeometry x="750" y="222.3" width="80" height="80" as="geometry" />
        </mxCell>
        <mxCell id="Ug8McBro-mjewhibWhuq-40" style="edgeStyle=orthogonalEdgeStyle;rounded=1;orthogonalLoop=1;jettySize=auto;html=1;entryX=0.5;entryY=0;entryDx=0;entryDy=0;entryPerimeter=0;strokeWidth=3;fontSize=13;exitX=0.5;exitY=1;exitDx=0;exitDy=0;exitPerimeter=0;" parent="1" source="Ug8McBro-mjewhibWhuq-10" target="Ug8McBro-mjewhibWhuq-14" edge="1">
          <mxGeometry relative="1" as="geometry" />
        </mxCell>
        <mxCell id="Ug8McBro-mjewhibWhuq-74" style="edgeStyle=orthogonalEdgeStyle;rounded=1;orthogonalLoop=1;jettySize=auto;html=1;exitX=0.5;exitY=1;exitDx=0;exitDy=0;exitPerimeter=0;entryX=0.5;entryY=0;entryDx=0;entryDy=0;entryPerimeter=0;strokeWidth=3;fontSize=15;" parent="1" source="Ug8McBro-mjewhibWhuq-10" target="Ug8McBro-mjewhibWhuq-15" edge="1">
          <mxGeometry relative="1" as="geometry" />
        </mxCell>
        <mxCell id="Ug8McBro-mjewhibWhuq-76" style="edgeStyle=orthogonalEdgeStyle;rounded=1;orthogonalLoop=1;jettySize=auto;html=1;exitX=0.5;exitY=1;exitDx=0;exitDy=0;exitPerimeter=0;entryX=0.5;entryY=0;entryDx=0;entryDy=0;entryPerimeter=0;strokeWidth=3;fontSize=15;" parent="1" source="Ug8McBro-mjewhibWhuq-10" target="Ug8McBro-mjewhibWhuq-16" edge="1">
          <mxGeometry relative="1" as="geometry" />
        </mxCell>
        <mxCell id="Ug8McBro-mjewhibWhuq-10" value="&lt;span style=&quot;color: rgb(66, 119, 187);&quot;&gt;&lt;b&gt;labeltask-control&lt;/b&gt;&lt;/span&gt;" style="points=[[0,0,0],[0.25,0,0],[0.5,0,0],[0.75,0,0],[1,0,0],[0,1,0],[0.25,1,0],[0.5,1,0],[0.75,1,0],[1,1,0],[0,0.25,0],[0,0.5,0],[0,0.75,0],[1,0.25,0],[1,0.5,0],[1,0.75,0]];outlineConnect=0;fontColor=#232F3E;gradientColor=#F78E04;gradientDirection=north;fillColor=#D05C17;strokeColor=#ffffff;dashed=0;verticalLabelPosition=bottom;verticalAlign=top;align=center;html=1;fontSize=12;fontStyle=0;aspect=fixed;shape=mxgraph.aws4.resourceIcon;resIcon=mxgraph.aws4.ecs;labelBackgroundColor=#ffffff;" parent="1" vertex="1">
          <mxGeometry x="540" y="502.3" width="80" height="80" as="geometry" />
        </mxCell>
        <mxCell id="Ug8McBro-mjewhibWhuq-11" value="&lt;b&gt;防火墙&lt;/b&gt;" style="points=[[0,0,0],[0.25,0,0],[0.5,0,0],[0.75,0,0],[1,0,0],[0,1,0],[0.25,1,0],[0.5,1,0],[0.75,1,0],[1,1,0],[0,0.25,0],[0,0.5,0],[0,0.75,0],[1,0.25,0],[1,0.5,0],[1,0.75,0]];outlineConnect=0;fontColor=#232F3E;gradientColor=#F54749;gradientDirection=north;fillColor=#C7131F;strokeColor=#ffffff;dashed=0;verticalLabelPosition=bottom;verticalAlign=top;align=center;html=1;fontSize=12;fontStyle=0;aspect=fixed;shape=mxgraph.aws4.resourceIcon;resIcon=mxgraph.aws4.firewall_manager;labelBackgroundColor=#ffffff;" parent="1" vertex="1">
          <mxGeometry x="751" y="90" width="80" height="80" as="geometry" />
        </mxCell>
        <mxCell id="Ug8McBro-mjewhibWhuq-37" style="edgeStyle=orthogonalEdgeStyle;rounded=1;orthogonalLoop=1;jettySize=auto;html=1;exitX=0.5;exitY=1;exitDx=0;exitDy=0;exitPerimeter=0;entryX=0.5;entryY=0;entryDx=0;entryDy=0;entryPerimeter=0;strokeWidth=3;fontSize=13;" parent="1" source="Ug8McBro-mjewhibWhuq-12" target="Ug8McBro-mjewhibWhuq-16" edge="1">
          <mxGeometry relative="1" as="geometry">
            <Array as="points">
              <mxPoint x="792" y="618" />
              <mxPoint x="830" y="618" />
            </Array>
          </mxGeometry>
        </mxCell>
        <mxCell id="Ug8McBro-mjewhibWhuq-38" style="edgeStyle=orthogonalEdgeStyle;rounded=1;orthogonalLoop=1;jettySize=auto;html=1;exitX=0.5;exitY=1;exitDx=0;exitDy=0;exitPerimeter=0;strokeWidth=3;fontSize=13;" parent="1" source="Ug8McBro-mjewhibWhuq-12" target="Ug8McBro-mjewhibWhuq-15" edge="1">
          <mxGeometry relative="1" as="geometry" />
        </mxCell>
        <mxCell id="Ug8McBro-mjewhibWhuq-39" style="edgeStyle=orthogonalEdgeStyle;rounded=1;orthogonalLoop=1;jettySize=auto;html=1;exitX=0.5;exitY=1;exitDx=0;exitDy=0;exitPerimeter=0;strokeWidth=3;fontSize=13;" parent="1" source="Ug8McBro-mjewhibWhuq-12" target="Ug8McBro-mjewhibWhuq-17" edge="1">
          <mxGeometry relative="1" as="geometry" />
        </mxCell>
        <mxCell id="Ug8McBro-mjewhibWhuq-12" value="&lt;span style=&quot;color: rgb(66, 119, 187);&quot;&gt;&lt;b&gt;labeladmin-control&lt;/b&gt;&lt;/span&gt;" style="points=[[0,0,0],[0.25,0,0],[0.5,0,0],[0.75,0,0],[1,0,0],[0,1,0],[0.25,1,0],[0.5,1,0],[0.75,1,0],[1,1,0],[0,0.25,0],[0,0.5,0],[0,0.75,0],[1,0.25,0],[1,0.5,0],[1,0.75,0]];outlineConnect=0;fontColor=#232F3E;gradientColor=#F78E04;gradientDirection=north;fillColor=#D05C17;strokeColor=#ffffff;dashed=0;verticalLabelPosition=bottom;verticalAlign=top;align=center;html=1;fontSize=12;fontStyle=0;aspect=fixed;shape=mxgraph.aws4.resourceIcon;resIcon=mxgraph.aws4.ecs;labelBackgroundColor=#ffffff;" parent="1" vertex="1">
          <mxGeometry x="752" y="502.3" width="80" height="80" as="geometry" />
        </mxCell>
        <mxCell id="Ug8McBro-mjewhibWhuq-41" style="edgeStyle=orthogonalEdgeStyle;rounded=1;orthogonalLoop=1;jettySize=auto;html=1;exitX=0.5;exitY=1;exitDx=0;exitDy=0;exitPerimeter=0;strokeWidth=3;fontSize=13;" parent="1" source="Ug8McBro-mjewhibWhuq-13" target="Ug8McBro-mjewhibWhuq-18" edge="1">
          <mxGeometry relative="1" as="geometry" />
        </mxCell>
        <mxCell id="Ug8McBro-mjewhibWhuq-77" style="edgeStyle=orthogonalEdgeStyle;rounded=1;orthogonalLoop=1;jettySize=auto;html=1;exitX=0.5;exitY=1;exitDx=0;exitDy=0;exitPerimeter=0;strokeWidth=3;fontSize=15;" parent="1" source="Ug8McBro-mjewhibWhuq-13" target="Ug8McBro-mjewhibWhuq-16" edge="1">
          <mxGeometry relative="1" as="geometry" />
        </mxCell>
        <mxCell id="Ug8McBro-mjewhibWhuq-13" value="&lt;span style=&quot;color: rgb(66, 119, 187);&quot;&gt;&lt;b&gt;crowd-template-control&lt;/b&gt;&lt;/span&gt;" style="points=[[0,0,0],[0.25,0,0],[0.5,0,0],[0.75,0,0],[1,0,0],[0,1,0],[0.25,1,0],[0.5,1,0],[0.75,1,0],[1,1,0],[0,0.25,0],[0,0.5,0],[0,0.75,0],[1,0.25,0],[1,0.5,0],[1,0.75,0]];outlineConnect=0;fontColor=#232F3E;gradientColor=#F78E04;gradientDirection=north;fillColor=#D05C17;strokeColor=#ffffff;dashed=0;verticalLabelPosition=bottom;verticalAlign=top;align=center;html=1;fontSize=12;fontStyle=0;aspect=fixed;shape=mxgraph.aws4.resourceIcon;resIcon=mxgraph.aws4.ecs;labelBackgroundColor=#ffffff;" parent="1" vertex="1">
          <mxGeometry x="980" y="502.3" width="80" height="80" as="geometry" />
        </mxCell>
        <mxCell id="Ug8McBro-mjewhibWhuq-56" style="edgeStyle=orthogonalEdgeStyle;rounded=1;orthogonalLoop=1;jettySize=auto;html=1;exitX=0.5;exitY=1;exitDx=0;exitDy=0;exitPerimeter=0;entryX=0.5;entryY=0;entryDx=0;entryDy=0;strokeWidth=3;fontSize=12;" parent="1" source="Ug8McBro-mjewhibWhuq-14" target="Ug8McBro-mjewhibWhuq-52" edge="1">
          <mxGeometry relative="1" as="geometry" />
        </mxCell>
        <mxCell id="Ug8McBro-mjewhibWhuq-57" style="edgeStyle=orthogonalEdgeStyle;rounded=1;orthogonalLoop=1;jettySize=auto;html=1;exitX=0.5;exitY=1;exitDx=0;exitDy=0;exitPerimeter=0;entryX=0.5;entryY=0;entryDx=0;entryDy=0;strokeWidth=3;fontSize=12;" parent="1" source="Ug8McBro-mjewhibWhuq-14" target="Ug8McBro-mjewhibWhuq-53" edge="1">
          <mxGeometry relative="1" as="geometry" />
        </mxCell>
        <mxCell id="Ug8McBro-mjewhibWhuq-58" style="edgeStyle=orthogonalEdgeStyle;rounded=1;orthogonalLoop=1;jettySize=auto;html=1;exitX=0.5;exitY=1;exitDx=0;exitDy=0;exitPerimeter=0;entryX=0.5;entryY=0;entryDx=0;entryDy=0;strokeWidth=3;fontSize=12;" parent="1" source="Ug8McBro-mjewhibWhuq-14" target="Ug8McBro-mjewhibWhuq-54" edge="1">
          <mxGeometry relative="1" as="geometry" />
        </mxCell>
        <mxCell id="Ug8McBro-mjewhibWhuq-14" value="&lt;span style=&quot;color: rgb(66, 119, 187);&quot;&gt;&lt;b&gt;labeltask-core&lt;/b&gt;&lt;/span&gt;" style="points=[[0,0,0],[0.25,0,0],[0.5,0,0],[0.75,0,0],[1,0,0],[0,1,0],[0.25,1,0],[0.5,1,0],[0.75,1,0],[1,1,0],[0,0.25,0],[0,0.5,0],[0,0.75,0],[1,0.25,0],[1,0.5,0],[1,0.75,0]];outlineConnect=0;fontColor=#232F3E;gradientColor=#F78E04;gradientDirection=north;fillColor=#D05C17;strokeColor=#ffffff;dashed=0;verticalLabelPosition=bottom;verticalAlign=top;align=center;html=1;fontSize=12;fontStyle=0;aspect=fixed;shape=mxgraph.aws4.resourceIcon;resIcon=mxgraph.aws4.ecs;labelBackgroundColor=#ffffff;" parent="1" vertex="1">
          <mxGeometry x="420" y="653.3" width="80" height="80" as="geometry" />
        </mxCell>
        <mxCell id="Ug8McBro-mjewhibWhuq-60" style="edgeStyle=orthogonalEdgeStyle;rounded=1;orthogonalLoop=1;jettySize=auto;html=1;exitX=0.5;exitY=1;exitDx=0;exitDy=0;exitPerimeter=0;entryX=0.5;entryY=0;entryDx=0;entryDy=0;strokeWidth=3;fontSize=12;" parent="1" source="Ug8McBro-mjewhibWhuq-15" target="Ug8McBro-mjewhibWhuq-54" edge="1">
          <mxGeometry relative="1" as="geometry" />
        </mxCell>
        <mxCell id="Ug8McBro-mjewhibWhuq-15" value="&lt;span style=&quot;color: rgb(66, 119, 187);&quot;&gt;&lt;b&gt;labelqueue-core&lt;/b&gt;&lt;/span&gt;" style="points=[[0,0,0],[0.25,0,0],[0.5,0,0],[0.75,0,0],[1,0,0],[0,1,0],[0.25,1,0],[0.5,1,0],[0.75,1,0],[1,1,0],[0,0.25,0],[0,0.5,0],[0,0.75,0],[1,0.25,0],[1,0.5,0],[1,0.75,0]];outlineConnect=0;fontColor=#232F3E;gradientColor=#F78E04;gradientDirection=north;fillColor=#D05C17;strokeColor=#ffffff;dashed=0;verticalLabelPosition=bottom;verticalAlign=top;align=center;html=1;fontSize=12;fontStyle=0;aspect=fixed;shape=mxgraph.aws4.resourceIcon;resIcon=mxgraph.aws4.ecs;labelBackgroundColor=#ffffff;" parent="1" vertex="1">
          <mxGeometry x="600" y="653.3" width="80" height="80" as="geometry" />
        </mxCell>
        <mxCell id="Ug8McBro-mjewhibWhuq-61" style="edgeStyle=orthogonalEdgeStyle;rounded=1;orthogonalLoop=1;jettySize=auto;html=1;exitX=0.5;exitY=1;exitDx=0;exitDy=0;exitPerimeter=0;entryX=0.5;entryY=0;entryDx=0;entryDy=0;strokeWidth=3;fontSize=12;" parent="1" source="Ug8McBro-mjewhibWhuq-16" target="Ug8McBro-mjewhibWhuq-54" edge="1">
          <mxGeometry relative="1" as="geometry" />
        </mxCell>
        <mxCell id="Ug8McBro-mjewhibWhuq-16" value="&lt;span style=&quot;color: rgb(66, 119, 187);&quot;&gt;&lt;b&gt;labelworkload-core&lt;/b&gt;&lt;/span&gt;" style="points=[[0,0,0],[0.25,0,0],[0.5,0,0],[0.75,0,0],[1,0,0],[0,1,0],[0.25,1,0],[0.5,1,0],[0.75,1,0],[1,1,0],[0,0.25,0],[0,0.5,0],[0,0.75,0],[1,0.25,0],[1,0.5,0],[1,0.75,0]];outlineConnect=0;fontColor=#232F3E;gradientColor=#F78E04;gradientDirection=north;fillColor=#D05C17;strokeColor=#ffffff;dashed=0;verticalLabelPosition=bottom;verticalAlign=top;align=center;html=1;fontSize=12;fontStyle=0;aspect=fixed;shape=mxgraph.aws4.resourceIcon;resIcon=mxgraph.aws4.ecs;labelBackgroundColor=#ffffff;" parent="1" vertex="1">
          <mxGeometry x="790" y="653.3" width="80" height="80" as="geometry" />
        </mxCell>
        <mxCell id="Ug8McBro-mjewhibWhuq-59" style="edgeStyle=orthogonalEdgeStyle;rounded=1;orthogonalLoop=1;jettySize=auto;html=1;exitX=0.5;exitY=1;exitDx=0;exitDy=0;exitPerimeter=0;entryX=0.5;entryY=0;entryDx=0;entryDy=0;strokeWidth=3;fontSize=12;" parent="1" source="Ug8McBro-mjewhibWhuq-17" target="Ug8McBro-mjewhibWhuq-55" edge="1">
          <mxGeometry relative="1" as="geometry" />
        </mxCell>
        <mxCell id="Ug8McBro-mjewhibWhuq-17" value="&lt;span style=&quot;color: rgb(66, 119, 187);&quot;&gt;&lt;b&gt;labeladmin-core&lt;/b&gt;&lt;/span&gt;" style="points=[[0,0,0],[0.25,0,0],[0.5,0,0],[0.75,0,0],[1,0,0],[0,1,0],[0.25,1,0],[0.5,1,0],[0.75,1,0],[1,1,0],[0,0.25,0],[0,0.5,0],[0,0.75,0],[1,0.25,0],[1,0.5,0],[1,0.75,0]];outlineConnect=0;fontColor=#232F3E;gradientColor=#F78E04;gradientDirection=north;fillColor=#D05C17;strokeColor=#ffffff;dashed=0;verticalLabelPosition=bottom;verticalAlign=top;align=center;html=1;fontSize=12;fontStyle=0;aspect=fixed;shape=mxgraph.aws4.resourceIcon;resIcon=mxgraph.aws4.ecs;labelBackgroundColor=#ffffff;" parent="1" vertex="1">
          <mxGeometry x="970" y="653.3" width="80" height="80" as="geometry" />
        </mxCell>
        <mxCell id="Ug8McBro-mjewhibWhuq-62" style="edgeStyle=orthogonalEdgeStyle;rounded=1;orthogonalLoop=1;jettySize=auto;html=1;exitX=0.5;exitY=1;exitDx=0;exitDy=0;exitPerimeter=0;entryX=0.5;entryY=0;entryDx=0;entryDy=0;strokeWidth=3;fontSize=12;" parent="1" source="Ug8McBro-mjewhibWhuq-18" target="Ug8McBro-mjewhibWhuq-55" edge="1">
          <mxGeometry relative="1" as="geometry" />
        </mxCell>
        <mxCell id="Ug8McBro-mjewhibWhuq-18" value="&lt;span style=&quot;color: rgb(66, 119, 187);&quot;&gt;&lt;b&gt;crowd-template-core&lt;/b&gt;&lt;/span&gt;" style="points=[[0,0,0],[0.25,0,0],[0.5,0,0],[0.75,0,0],[1,0,0],[0,1,0],[0.25,1,0],[0.5,1,0],[0.75,1,0],[1,1,0],[0,0.25,0],[0,0.5,0],[0,0.75,0],[1,0.25,0],[1,0.5,0],[1,0.75,0]];outlineConnect=0;fontColor=#232F3E;gradientColor=#F78E04;gradientDirection=north;fillColor=#D05C17;strokeColor=#ffffff;dashed=0;verticalLabelPosition=bottom;verticalAlign=top;align=center;html=1;fontSize=12;fontStyle=0;aspect=fixed;shape=mxgraph.aws4.resourceIcon;resIcon=mxgraph.aws4.ecs;labelBackgroundColor=#ffffff;" parent="1" vertex="1">
          <mxGeometry x="1160" y="653.3" width="80" height="80" as="geometry" />
        </mxCell>
        <mxCell id="Ug8McBro-mjewhibWhuq-34" style="edgeStyle=orthogonalEdgeStyle;rounded=1;orthogonalLoop=1;jettySize=auto;html=1;exitX=0.5;exitY=1;exitDx=0;exitDy=0;exitPerimeter=0;strokeWidth=3;fontSize=13;textOpacity=0;" parent="1" source="Ug8McBro-mjewhibWhuq-31" target="Ug8McBro-mjewhibWhuq-10" edge="1">
          <mxGeometry relative="1" as="geometry" />
        </mxCell>
        <mxCell id="Ug8McBro-mjewhibWhuq-35" style="edgeStyle=orthogonalEdgeStyle;rounded=1;orthogonalLoop=1;jettySize=auto;html=1;entryX=0.5;entryY=0;entryDx=0;entryDy=0;entryPerimeter=0;strokeWidth=3;fontSize=13;" parent="1" source="Ug8McBro-mjewhibWhuq-31" target="Ug8McBro-mjewhibWhuq-12" edge="1">
          <mxGeometry relative="1" as="geometry" />
        </mxCell>
        <mxCell id="Ug8McBro-mjewhibWhuq-36" style="edgeStyle=orthogonalEdgeStyle;rounded=1;orthogonalLoop=1;jettySize=auto;html=1;exitX=0.5;exitY=1;exitDx=0;exitDy=0;exitPerimeter=0;strokeWidth=3;fontSize=13;" parent="1" source="Ug8McBro-mjewhibWhuq-31" target="Ug8McBro-mjewhibWhuq-13" edge="1">
          <mxGeometry relative="1" as="geometry" />
        </mxCell>
        <mxCell id="Ug8McBro-mjewhibWhuq-31" value="gateway网关层" style="points=[[0,0,0],[0.25,0,0],[0.5,0,0],[0.75,0,0],[1,0,0],[0,1,0],[0.25,1,0],[0.5,1,0],[0.75,1,0],[1,1,0],[0,0.25,0],[0,0.5,0],[0,0.75,0],[1,0.25,0],[1,0.5,0],[1,0.75,0]];outlineConnect=0;fontColor=#232F3E;gradientColor=#945DF2;gradientDirection=north;fillColor=#5A30B5;strokeColor=#ffffff;dashed=0;verticalLabelPosition=bottom;verticalAlign=top;align=center;html=1;fontSize=12;fontStyle=1;aspect=fixed;shape=mxgraph.aws4.resourceIcon;resIcon=mxgraph.aws4.api_gateway;labelBorderColor=none;labelBackgroundColor=#ffffff;" parent="1" vertex="1">
          <mxGeometry x="751" y="351" width="80" height="80" as="geometry" />
        </mxCell>
        <mxCell id="Ug8McBro-mjewhibWhuq-43" value="Redis" style="shape=image;html=1;verticalAlign=top;verticalLabelPosition=bottom;labelBackgroundColor=none;imageAspect=0;aspect=fixed;image=https://cdn4.iconfinder.com/data/icons/redis-2/1451/Untitled-2-128.png;fontSize=12;fontStyle=1" parent="1" vertex="1">
          <mxGeometry x="294" y="826" width="80" height="80" as="geometry" />
        </mxCell>
        <mxCell id="Ug8McBro-mjewhibWhuq-44" value="Redis" style="shape=image;html=1;verticalAlign=top;verticalLabelPosition=bottom;labelBackgroundColor=none;imageAspect=0;aspect=fixed;image=https://cdn4.iconfinder.com/data/icons/redis-2/1451/Untitled-2-128.png;fontSize=12;fontStyle=1" parent="1" vertex="1">
          <mxGeometry x="434" y="827" width="80" height="80" as="geometry" />
        </mxCell>
        <mxCell id="Ug8McBro-mjewhibWhuq-45" value="&lt;b&gt;MySQL&lt;/b&gt;" style="shape=image;html=1;verticalAlign=top;verticalLabelPosition=bottom;labelBackgroundColor=none;imageAspect=0;aspect=fixed;image=https://cdn4.iconfinder.com/data/icons/logos-3/181/MySQL-128.png;fontSize=12;" parent="1" vertex="1">
          <mxGeometry x="618" y="828.5" width="80" height="80" as="geometry" />
        </mxCell>
        <mxCell id="Ug8McBro-mjewhibWhuq-47" value="&lt;b&gt;MySQL&lt;/b&gt;" style="shape=image;html=1;verticalAlign=top;verticalLabelPosition=bottom;labelBackgroundColor=none;imageAspect=0;aspect=fixed;image=https://cdn4.iconfinder.com/data/icons/logos-3/181/MySQL-128.png;fontSize=12;" parent="1" vertex="1">
          <mxGeometry x="747" y="828.5" width="80" height="80" as="geometry" />
        </mxCell>
        <mxCell id="Ug8McBro-mjewhibWhuq-48" value="&lt;b&gt;MongoDB&lt;/b&gt;" style="dashed=0;outlineConnect=0;html=1;align=center;labelPosition=center;verticalLabelPosition=bottom;verticalAlign=top;shape=mxgraph.webicons.mongodb;gradientColor=#DFDEDE;labelBackgroundColor=none;fontSize=12;" parent="1" vertex="1">
          <mxGeometry x="930" y="827" width="80" height="80" as="geometry" />
        </mxCell>
        <mxCell id="Ug8McBro-mjewhibWhuq-49" value="&lt;b&gt;MongoDB&lt;/b&gt;" style="dashed=0;outlineConnect=0;html=1;align=center;labelPosition=center;verticalLabelPosition=bottom;verticalAlign=top;shape=mxgraph.webicons.mongodb;gradientColor=#DFDEDE;labelBackgroundColor=none;fontSize=12;" parent="1" vertex="1">
          <mxGeometry x="1060" y="827" width="80" height="80" as="geometry" />
        </mxCell>
        <mxCell id="Ug8McBro-mjewhibWhuq-50" value="&lt;b style=&quot;font-size: 12px;&quot;&gt;ElasticSearch&lt;/b&gt;" style="outlineConnect=0;dashed=0;verticalLabelPosition=bottom;verticalAlign=top;align=center;html=1;shape=mxgraph.aws3.elasticsearch_service;fillColor=#F58534;gradientColor=none;labelBackgroundColor=none;fontSize=12;" parent="1" vertex="1">
          <mxGeometry x="1250" y="821.5" width="67.5" height="81" as="geometry" />
        </mxCell>
        <mxCell id="Ug8McBro-mjewhibWhuq-51" value="&lt;b&gt;ElasticSearch&lt;/b&gt;" style="outlineConnect=0;dashed=0;verticalLabelPosition=bottom;verticalAlign=top;align=center;html=1;shape=mxgraph.aws3.elasticsearch_service;fillColor=#F58534;gradientColor=none;labelBackgroundColor=none;fontSize=12;" parent="1" vertex="1">
          <mxGeometry x="1372.5" y="820" width="67.5" height="81" as="geometry" />
        </mxCell>
        <mxCell id="Ug8McBro-mjewhibWhuq-63" value="" style="aspect=fixed;perimeter=ellipsePerimeter;html=1;align=center;shadow=0;dashed=0;fontColor=#4277BB;labelBackgroundColor=#ffffff;fontSize=12;spacingTop=3;image;image=img/lib/ibm/infrastructure/channels.svg;" parent="1" vertex="1">
          <mxGeometry x="1510" y="120" width="80" height="80" as="geometry" />
        </mxCell>
        <mxCell id="Ug8McBro-mjewhibWhuq-64" value="前端服务" style="text;html=1;strokeColor=none;fillColor=none;align=center;verticalAlign=middle;whiteSpace=wrap;rounded=0;dashed=1;labelBackgroundColor=#ffffff;fontSize=15;fontStyle=1" parent="1" vertex="1">
          <mxGeometry x="1609" y="152" width="91" height="20" as="geometry" />
        </mxCell>
        <mxCell id="Ug8McBro-mjewhibWhuq-65" value="" style="points=[[0,0,0],[0.25,0,0],[0.5,0,0],[0.75,0,0],[1,0,0],[0,1,0],[0.25,1,0],[0.5,1,0],[0.75,1,0],[1,1,0],[0,0.25,0],[0,0.5,0],[0,0.75,0],[1,0.25,0],[1,0.5,0],[1,0.75,0]];outlineConnect=0;fontColor=#232F3E;gradientColor=#F78E04;gradientDirection=north;fillColor=#D05C17;strokeColor=#ffffff;dashed=0;verticalLabelPosition=bottom;verticalAlign=top;align=center;html=1;fontSize=12;fontStyle=0;aspect=fixed;shape=mxgraph.aws4.resourceIcon;resIcon=mxgraph.aws4.ecs;labelBackgroundColor=#ffffff;" parent="1" vertex="1">
          <mxGeometry x="1510" y="220" width="80" height="80" as="geometry" />
        </mxCell>
        <mxCell id="Ug8McBro-mjewhibWhuq-66" value="JAVA服务" style="text;html=1;strokeColor=none;fillColor=none;align=center;verticalAlign=middle;whiteSpace=wrap;rounded=0;dashed=1;labelBackgroundColor=#ffffff;fontSize=15;fontStyle=1" parent="1" vertex="1">
          <mxGeometry x="1609" y="250" width="91" height="20" as="geometry" />
        </mxCell>
        <mxCell id="Ug8McBro-mjewhibWhuq-68" style="edgeStyle=orthogonalEdgeStyle;rounded=1;orthogonalLoop=1;jettySize=auto;html=1;strokeWidth=3;fontSize=13;" parent="1" edge="1">
          <mxGeometry relative="1" as="geometry">
            <mxPoint x="1510" y="360" as="sourcePoint" />
            <mxPoint x="1590" y="360" as="targetPoint" />
          </mxGeometry>
        </mxCell>
        <mxCell id="Ug8McBro-mjewhibWhuq-69" value="服务依赖关系" style="text;html=1;strokeColor=none;fillColor=none;align=center;verticalAlign=middle;whiteSpace=wrap;rounded=0;dashed=1;labelBackgroundColor=#ffffff;fontSize=15;fontStyle=1" parent="1" vertex="1">
          <mxGeometry x="1609" y="350" width="101" height="20" as="geometry" />
        </mxCell>
        <mxCell id="Ug8McBro-mjewhibWhuq-70" value="&lt;span style=&quot;font-size: 12px&quot;&gt;dubbo&lt;/span&gt;" style="fillColor=#28A8E0;verticalLabelPosition=bottom;html=1;strokeColor=#ffffff;verticalAlign=top;align=center;points=[[0.145,0.145,0],[0.5,0,0],[0.855,0.145,0],[1,0.5,0],[0.855,0.855,0],[0.5,1,0],[0.145,0.855,0],[0,0.5,0]];pointerEvents=1;shape=mxgraph.cisco_safe.compositeIcon;bgIcon=ellipse;resIcon=mxgraph.cisco_safe.capability.distributed_denial_of_service_protection;dashed=1;labelBackgroundColor=none;fontSize=12;fontStyle=1" parent="1" vertex="1">
          <mxGeometry x="105" y="620" width="80" height="80" as="geometry" />
        </mxCell>
        <mxCell id="Ug8McBro-mjewhibWhuq-71" value="&lt;b&gt;nacos&lt;/b&gt;" style="outlineConnect=0;dashed=0;verticalLabelPosition=bottom;verticalAlign=top;align=center;html=1;shape=mxgraph.aws3.emr_cluster;fillColor=#F58534;gradientColor=none;labelBackgroundColor=none;fontSize=12;" parent="1" vertex="1">
          <mxGeometry x="205" y="620" width="80" height="80" as="geometry" />
        </mxCell>
        <mxCell id="Ug8McBro-mjewhibWhuq-73" value="微服务通信" style="text;html=1;strokeColor=none;fillColor=none;align=center;verticalAlign=middle;whiteSpace=wrap;rounded=0;dashed=1;labelBackgroundColor=none;fontSize=14;fontStyle=1" parent="1" vertex="1">
          <mxGeometry x="155" y="590" width="80" height="20" as="geometry" />
        </mxCell>
        <mxCell id="Ug8McBro-mjewhibWhuq-78" value="nginx" style="shape=image;html=1;verticalAlign=top;verticalLabelPosition=bottom;labelBackgroundColor=none;imageAspect=0;aspect=fixed;image=https://cdn4.iconfinder.com/data/icons/logos-brands-5/24/nginx-128.png;dashed=1;fillColor=#CCFFE6;fontSize=12;fontStyle=1" parent="1" vertex="1">
          <mxGeometry x="1355" y="580.3" width="80" height="80" as="geometry" />
        </mxCell>
        <mxCell id="Ug8McBro-mjewhibWhuq-80" value="nginx" style="shape=image;html=1;verticalAlign=top;verticalLabelPosition=bottom;labelBackgroundColor=none;imageAspect=0;aspect=fixed;image=https://cdn4.iconfinder.com/data/icons/logos-brands-5/24/nginx-128.png;dashed=1;fillColor=#CCFFE6;fontSize=12;fontStyle=1" parent="1" vertex="1">
          <mxGeometry x="1480" y="583" width="80" height="80" as="geometry" />
        </mxCell>
        <mxCell id="Ug8McBro-mjewhibWhuq-81" value="…" style="text;html=1;strokeColor=none;fillColor=none;align=center;verticalAlign=middle;whiteSpace=wrap;rounded=0;dashed=1;labelBackgroundColor=none;fontSize=25;fontStyle=1" parent="1" vertex="1">
          <mxGeometry x="1437" y="606" width="40" height="20" as="geometry" />
        </mxCell>
        <mxCell id="Ug8McBro-mjewhibWhuq-82" value="…" style="text;html=1;strokeColor=none;fillColor=none;align=center;verticalAlign=middle;whiteSpace=wrap;rounded=0;dashed=1;labelBackgroundColor=none;fontSize=25;fontStyle=1" parent="1" vertex="1">
          <mxGeometry x="1325" y="858.5" width="40" height="20" as="geometry" />
        </mxCell>
        <mxCell id="Ug8McBro-mjewhibWhuq-85" value="…" style="text;html=1;strokeColor=none;fillColor=none;align=center;verticalAlign=middle;whiteSpace=wrap;rounded=0;dashed=1;labelBackgroundColor=none;fontSize=25;fontStyle=1" parent="1" vertex="1">
          <mxGeometry x="1015" y="862" width="40" height="20" as="geometry" />
        </mxCell>
        <mxCell id="Ug8McBro-mjewhibWhuq-86" value="…" style="text;html=1;strokeColor=none;fillColor=none;align=center;verticalAlign=middle;whiteSpace=wrap;rounded=0;dashed=1;labelBackgroundColor=none;fontSize=25;fontStyle=1" parent="1" vertex="1">
          <mxGeometry x="707" y="862" width="40" height="20" as="geometry" />
        </mxCell>
        <mxCell id="Ug8McBro-mjewhibWhuq-87" value="…" style="text;html=1;strokeColor=none;fillColor=none;align=center;verticalAlign=middle;whiteSpace=wrap;rounded=0;dashed=1;labelBackgroundColor=none;fontSize=25;fontStyle=1" parent="1" vertex="1">
          <mxGeometry x="380" y="857" width="40" height="20" as="geometry" />
        </mxCell>
        <mxCell id="Ug8McBro-mjewhibWhuq-90" value="" style="verticalLabelPosition=bottom;aspect=fixed;html=1;verticalAlign=top;strokeColor=none;align=center;outlineConnect=0;shape=mxgraph.citrix.file_server;dashed=1;labelBackgroundColor=none;fillColor=#CCFFE6;fontSize=25;" parent="1" vertex="1">
          <mxGeometry x="1721" y="590" width="65.85" height="90" as="geometry" />
        </mxCell>
        <mxCell id="Ug8McBro-mjewhibWhuq-92" value="" style="verticalLabelPosition=bottom;aspect=fixed;html=1;verticalAlign=top;strokeColor=none;align=center;outlineConnect=0;shape=mxgraph.citrix.file_server;dashed=1;labelBackgroundColor=none;fillColor=#CCFFE6;fontSize=25;" parent="1" vertex="1">
          <mxGeometry x="1830" y="590" width="65.85" height="90" as="geometry" />
        </mxCell>
        <mxCell id="Ug8McBro-mjewhibWhuq-93" value="文件服务Ceph / NAS / OSS / S3" style="text;html=1;strokeColor=none;fillColor=none;align=center;verticalAlign=middle;whiteSpace=wrap;rounded=0;dashed=1;labelBackgroundColor=none;fontSize=14;fontStyle=1" parent="1" vertex="1">
          <mxGeometry x="1695" y="565" width="220" height="20" as="geometry" />
        </mxCell>
        <mxCell id="Ug8McBro-mjewhibWhuq-94" value="" style="shape=flexArrow;endArrow=classic;startArrow=classic;html=1;strokeWidth=1;fontSize=14;shadow=0;sketch=0;fillColor=#CCFFE6;" parent="1" edge="1">
          <mxGeometry width="50" height="50" relative="1" as="geometry">
            <mxPoint x="1240" y="625.5" as="sourcePoint" />
            <mxPoint x="1310" y="625.5" as="targetPoint" />
          </mxGeometry>
        </mxCell>
        <mxCell id="Ug8McBro-mjewhibWhuq-95" value="" style="shape=flexArrow;endArrow=classic;startArrow=classic;html=1;strokeWidth=1;fontSize=14;shadow=0;sketch=0;fillColor=#CCFFE6;" parent="1" edge="1">
          <mxGeometry width="50" height="50" relative="1" as="geometry">
            <mxPoint x="1593" y="624.5" as="sourcePoint" />
            <mxPoint x="1663" y="624.5" as="targetPoint" />
          </mxGeometry>
        </mxCell>
      </root>
    </mxGraphModel>
  </diagram>
</mxfile>
